<svg id="Capa_1" enable-background="new 0 0 512 512" height="512" viewBox="0 0 512 512" width="512" xmlns="http://www.w3.org/2000/svg"><g><g><g><path d="m361.258 512h-287.229c-8.607 0-15.585-6.978-15.585-15.585v-412.837c0-8.607 6.978-15.585 15.585-15.585h287.229c8.607 0 15.585 6.978 15.585 15.585v412.836c0 8.608-6.978 15.586-15.585 15.586z" fill="#faf7f7"/><path d="m376.84 83.575v412.84c0 8.61-6.974 15.583-15.583 15.583h-20.572c8.609 0 15.583-6.974 15.583-15.583v-412.84c0-8.599-6.974-15.583-15.583-15.583h20.572c8.609 0 15.583 6.984 15.583 15.583z" fill="#ede1dd"/><path d="m248.39 42.274v-11.243c0-17.138-13.766-31.031-30.746-31.031-16.981 0-30.746 13.893-30.746 31.031v11.243h-39.524c-3.412 0-6.177 2.791-6.177 6.235v38.968c0 3.443 2.766 6.235 6.177 6.235h140.54c3.412 0 6.177-2.791 6.177-6.235v-38.968c0-3.443-2.766-6.235-6.177-6.235z" fill="#8d9ca8"/><g fill="#7a8c98"><path d="m248.389 31.034v11.243h-9.33c-6.209 0-11.243-5.033-11.243-11.243 0-13.495-8.537-24.985-20.459-29.243 3.209-1.162 6.676-1.79 10.286-1.79 16.983 0 30.746 13.897 30.746 31.033z"/><path d="m294.089 48.51v38.963c0 3.446-2.767 6.233-6.172 6.233h-20.572c3.405 0 6.172-2.787 6.172-6.233v-38.963c0-3.446-2.767-6.233-6.172-6.233h20.572c3.405 0 6.172 2.787 6.172 6.233z"/></g></g></g><circle cx="365.01" cy="423.454" fill="#fe646f" r="88.546"/><path d="m453.555 423.459c0 48.902-39.638 88.54-88.55 88.54-19.76 0-37.999-6.469-52.736-17.404 10.003 3.909 20.895 6.062 32.28 6.062 48.902 0 88.54-39.648 88.54-88.551 0-29.142-14.084-54.996-35.804-71.136 32.944 12.906 56.27 44.972 56.27 82.489z" fill="#fd4755"/><path d="m384.031 423.454 19.908-19.908c5.253-5.253 5.253-13.768 0-19.021-5.252-5.253-13.769-5.253-19.021 0l-19.908 19.908-19.908-19.908c-5.252-5.253-13.769-5.253-19.021 0-5.253 5.253-5.253 13.768 0 19.021l19.908 19.908-19.908 19.908c-5.253 5.253-5.253 13.768 0 19.021 2.626 2.627 6.068 3.94 9.511 3.94 3.442 0 6.884-1.313 9.511-3.94l19.908-19.908 19.908 19.908c2.626 2.627 6.068 3.94 9.511 3.94 3.442 0 6.884-1.313 9.511-3.94 5.253-5.253 5.253-13.768 0-19.021z" fill="#faf7f7"/><path d="m403.936 443.36c5.256 5.256 5.256 13.773 0 19.019-2.623 2.633-6.069 3.939-9.504 3.939-3.446 0-6.892-1.306-9.515-3.939l-.072-.072c5.184-5.246 5.164-13.711-.062-18.947l-15.185-15.177c-2.612-2.61-2.612-6.843-.001-9.454l15.186-15.186c5.225-5.225 5.246-13.691.062-18.947l.072-.072c5.256-5.256 13.773-5.256 19.019 0 5.256 5.256 5.256 13.773 0 19.019l-19.903 19.914z" fill="#ede1dd"/><g><g><g><path d="m127.943 165.807h-22.929c-4.143 0-7.5-3.358-7.5-7.5s3.357-7.5 7.5-7.5h22.929c4.143 0 7.5 3.358 7.5 7.5s-3.357 7.5-7.5 7.5z" fill="#e1d3ce"/></g><g><path d="m330.272 165.807h-158.465c-4.143 0-7.5-3.358-7.5-7.5s3.357-7.5 7.5-7.5h158.466c4.143 0 7.5 3.358 7.5 7.5s-3.358 7.5-7.501 7.5z" fill="#e1d3ce"/></g></g><g><g><path d="m127.943 207.106h-22.929c-4.143 0-7.5-3.358-7.5-7.5s3.357-7.5 7.5-7.5h22.929c4.143 0 7.5 3.358 7.5 7.5s-3.357 7.5-7.5 7.5z" fill="#e1d3ce"/></g><g><path d="m330.272 207.106h-158.465c-4.143 0-7.5-3.358-7.5-7.5s3.357-7.5 7.5-7.5h158.466c4.143 0 7.5 3.358 7.5 7.5s-3.358 7.5-7.501 7.5z" fill="#e1d3ce"/></g></g><g><g><path d="m127.943 248.406h-22.929c-4.143 0-7.5-3.358-7.5-7.5s3.357-7.5 7.5-7.5h22.929c4.143 0 7.5 3.358 7.5 7.5s-3.357 7.5-7.5 7.5z" fill="#e1d3ce"/></g><g><path d="m330.272 248.406h-158.465c-4.143 0-7.5-3.358-7.5-7.5s3.357-7.5 7.5-7.5h158.466c4.143 0 7.5 3.358 7.5 7.5s-3.358 7.5-7.501 7.5z" fill="#e1d3ce"/></g></g><g><g><path d="m127.943 289.706h-22.929c-4.143 0-7.5-3.358-7.5-7.5s3.357-7.5 7.5-7.5h22.929c4.143 0 7.5 3.358 7.5 7.5s-3.357 7.5-7.5 7.5z" fill="#e1d3ce"/></g><g><path d="m330.272 289.706h-158.465c-4.143 0-7.5-3.358-7.5-7.5s3.357-7.5 7.5-7.5h158.466c4.143 0 7.5 3.358 7.5 7.5s-3.358 7.5-7.501 7.5z" fill="#e1d3ce"/></g></g><g><g><path d="m127.943 331.006h-22.929c-4.143 0-7.5-3.358-7.5-7.5s3.357-7.5 7.5-7.5h22.929c4.143 0 7.5 3.358 7.5 7.5s-3.357 7.5-7.5 7.5z" fill="#e1d3ce"/></g><g><path d="m289.872 331.006h-118.065c-4.143 0-7.5-3.358-7.5-7.5s3.357-7.5 7.5-7.5h118.065c4.143 0 7.5 3.358 7.5 7.5s-3.357 7.5-7.5 7.5z" fill="#e1d3ce"/></g></g><g><g><path d="m127.943 372.306h-22.929c-4.143 0-7.5-3.358-7.5-7.5s3.357-7.5 7.5-7.5h22.929c4.143 0 7.5 3.358 7.5 7.5s-3.357 7.5-7.5 7.5z" fill="#e1d3ce"/></g><g><path d="m257.021 372.306h-85.214c-4.143 0-7.5-3.358-7.5-7.5s3.357-7.5 7.5-7.5h85.214c4.143 0 7.5 3.358 7.5 7.5s-3.358 7.5-7.5 7.5z" fill="#e1d3ce"/></g></g><g><g><path d="m127.943 413.605h-22.929c-4.143 0-7.5-3.358-7.5-7.5s3.357-7.5 7.5-7.5h22.929c4.143 0 7.5 3.358 7.5 7.5s-3.357 7.5-7.5 7.5z" fill="#e1d3ce"/></g><g><path d="m235.349 413.605h-63.542c-4.143 0-7.5-3.358-7.5-7.5s3.357-7.5 7.5-7.5h63.542c4.143 0 7.5 3.358 7.5 7.5s-3.358 7.5-7.5 7.5z" fill="#e1d3ce"/></g></g><g><g><path d="m127.943 454.905h-22.929c-4.143 0-7.5-3.358-7.5-7.5s3.357-7.5 7.5-7.5h22.929c4.143 0 7.5 3.358 7.5 7.5s-3.357 7.5-7.5 7.5z" fill="#e1d3ce"/></g><g><path d="m228.111 454.905h-56.305c-4.143 0-7.5-3.358-7.5-7.5s3.357-7.5 7.5-7.5h56.305c4.143 0 7.5 3.358 7.5 7.5s-3.357 7.5-7.5 7.5z" fill="#e1d3ce"/></g></g></g></g></svg>