<svg id="Icon" viewBox="0 0 24 24" xmlns="http://www.w3.org/2000/svg"><path d="m5 20.75h9c.234 0 .461-.029.674-.085.282-.075.496-.309.546-.597l1.52-8.81c.007-.042.011-.084.011-.127v-6.13c0-1.517-1.233-2.75-2.75-2.75h-9.001c-1.517 0-2.75 1.233-2.75 2.75v13c0 1.517 1.233 2.75 2.75 2.75z" fill="#bad7ff"/><path d="m13.18 17c0 .414-.336.75-.75.75h-6.43c-.414 0-.75-.336-.75-.75s.336-.75.75-.75h6.43c.414 0 .75.336.75.75zm-7.18-2.25h6.01c.414 0 .75-.336.75-.75s-.336-.75-.75-.75h-6.01c-.414 0-.75.336-.75.75s.336.75.75.75z" fill="#8cbdff"/><path d="m7.5 8.75h1.25v1.25c0 .414.336.75.75.75s.75-.336.75-.75v-1.25h1.25c.414 0 .75-.336.75-.75s-.336-.75-.75-.75h-1.25v-1.25c0-.414-.336-.75-.75-.75s-.75.336-.75.75v1.25h-1.25c-.414 0-.75.336-.75.75s.336.75.75.75z" fill="#549bff"/><path d="m20.746 12.384-3.375-1.903c-.545-.308-1.197-.308-1.742 0l-3.375 1.903c-.619.349-1.004 1.034-1.004 1.788v.328c0 3.415 2.075 6.384 5.047 7.222.066.019.135.028.203.028s.137-.009.203-.028c2.972-.837 5.047-3.807 5.047-7.222v-.328c0-.754-.385-1.439-1.004-1.788z" fill="#549bff"/><path d="m15.47 17.53c.146.146.338.22.53.22s.384-.073.53-.22l2-2c.293-.293.293-.768 0-1.061s-.768-.293-1.061 0l-1.47 1.47-.47-.47c-.293-.293-.768-.293-1.061 0s-.293.768 0 1.061l1 1z" fill="#bad7ff"/></svg>